<svg xmlns="http://www.w3.org/2000/svg" viewBox="0 0 160 96" fill="none" aria-hidden="true" role="img">
  <title>Flying crane ornament</title>
  <defs>
    <linearGradient id="wingCream" x1="30" y1="16" x2="119" y2="79" gradientUnits="userSpaceOnUse">
      <stop offset="0" stop-color="#fffdf5"/>
      <stop offset="0.48" stop-color="#fff0c8"/>
      <stop offset="1" stop-color="#e5aa45"/>
    </linearGradient>
    <linearGradient id="goldLine" x1="12" y1="12" x2="148" y2="86" gradientUnits="userSpaceOnUse">
      <stop offset="0" stop-color="#f8d68a"/>
      <stop offset="0.55" stop-color="#c9841f"/>
      <stop offset="1" stop-color="#8d4d12"/>
    </linearGradient>
    <filter id="softShadow" x="-20%" y="-20%" width="140%" height="140%">
      <feDropShadow dx="0" dy="2" stdDeviation="1.6" flood-color="#5c170d" flood-opacity="0.22"/>
    </filter>
  </defs>

  <g filter="url(#softShadow)">
    <!-- left wing -->
    <path d="M67.4 52.3C54.5 51.7 40.5 47.2 24.4 39.2C35.2 53 48.8 61.6 65.8 64.4C71.7 65.4 76.8 62.8 78.9 58.6C75.8 55.6 72.2 52.8 67.4 52.3Z" fill="url(#wingCream)" stroke="url(#goldLine)" stroke-width="1.55" stroke-linejoin="round"/>
    <path d="M24.4 39.2C31.2 55.7 44.8 66 65.1 70.2C71.3 71.5 78.4 68.4 82.1 61.9C76.8 64.9 70.1 65.2 62.6 62.9C49.4 58.9 36.7 51 24.4 39.2Z" fill="#fff5dc" stroke="url(#goldLine)" stroke-width="1.35" stroke-linejoin="round"/>
    <path d="M19.1 53.1C34.4 70.2 49.6 78 64.8 76.6C72.1 75.9 79.6 70.6 82.4 62.6C73.7 70.4 61.4 70.5 45.7 62.8C36.5 58.3 27.6 55 19.1 53.1Z" fill="#fff8eb" stroke="url(#goldLine)" stroke-width="1.3" stroke-linejoin="round"/>

    <!-- upward right wing -->
    <path d="M88.4 55.8C88 42 91.7 27.5 99.6 11.6C105.2 31.2 102.7 48.6 92.1 63.8C90.5 61.4 89.2 58.7 88.4 55.8Z" fill="url(#wingCream)" stroke="url(#goldLine)" stroke-width="1.55" stroke-linejoin="round"/>
    <path d="M94.6 59.8C101.7 47.2 110.8 36.6 121.8 28.1C119.2 48.8 110 63.4 94.2 72C95.5 68.2 95.7 64.2 94.6 59.8Z" fill="#fff3d2" stroke="url(#goldLine)" stroke-width="1.35" stroke-linejoin="round"/>
    <path d="M96.1 67.1C108.7 58.9 121.9 53.2 135.8 50C125.6 67.8 112.1 77.4 95.5 78.8C97.4 75.4 97.7 71.5 96.1 67.1Z" fill="#fff8eb" stroke="url(#goldLine)" stroke-width="1.3" stroke-linejoin="round"/>

    <!-- neck and head -->
    <path d="M73.1 55.8C64.5 50.1 56.3 43.1 48.3 34.8C41.5 27.7 34.2 28.5 30.2 34.3C38.4 32.2 45.4 36 51.9 43.4C58.2 50.4 65.4 56.3 73.3 61.2L73.1 55.8Z" fill="#fffaf0" stroke="url(#goldLine)" stroke-width="1.6" stroke-linecap="round" stroke-linejoin="round"/>
    <path d="M27.9 34.9C23.9 34.6 20.8 36.2 18.1 39.1C23.3 38.8 27.7 37.7 31.4 35.5C30.6 34.9 29.5 34.9 27.9 34.9Z" fill="#f5c760" stroke="#9d5d18" stroke-width="1.15" stroke-linejoin="round"/>
    <path d="M31.2 34.2C35.4 28.2 42.3 27.4 47.4 32.1C43.7 33.4 38.7 34 31.2 34.2Z" fill="#c72d1e" stroke="#8b2418" stroke-width="1"/>
    <circle cx="35.1" cy="34.2" r="1.35" fill="#24150c"/>

    <!-- body -->
    <path d="M70.2 54.2C82.3 48.9 96.4 53.4 102.7 65.2C94.7 74.2 78.7 75.1 65.7 65.4C61.1 61.9 63.7 57 70.2 54.2Z" fill="url(#wingCream)" stroke="url(#goldLine)" stroke-width="1.7" stroke-linejoin="round"/>

    <!-- tail feathers -->
    <path d="M99.7 63.7C113.3 63.2 123.4 67.3 133.3 76.5C120.2 74 110.2 74.6 101.7 78.7C103.7 73.5 103.1 68.5 99.7 63.7Z" fill="#3c2416" stroke="#9d641e" stroke-width="1.4" stroke-linejoin="round"/>
    <path d="M104.3 67.5C116 68.6 125.8 73.7 137.4 84.1C124.7 81.1 113.5 80.7 101.8 84C105.1 78.8 105.8 73.3 104.3 67.5Z" fill="#1d1711" stroke="#d59b38" stroke-width="1.25" stroke-linejoin="round"/>

    <!-- legs -->
    <path d="M104.4 74.5C113.7 80.5 124.2 85.4 136 89.1" stroke="#c9841f" stroke-width="1.8" stroke-linecap="round"/>
    <path d="M102.1 77.2C111.2 84.1 120.2 89.6 129.1 93.6" stroke="#d7a13d" stroke-width="1.45" stroke-linecap="round"/>
    <path d="M135.6 89.3L143.5 88.4" stroke="#c9841f" stroke-width="1.25" stroke-linecap="round"/>
    <path d="M129 93.4L136.2 95.3" stroke="#c9841f" stroke-width="1.1" stroke-linecap="round"/>

    <!-- feather detail lines -->
    <g stroke="#d79a35" stroke-width="1.05" stroke-linecap="round" opacity="0.9">
      <path d="M36 45.5C44.4 53.3 54.6 58.8 66.7 62"/>
      <path d="M30.8 54.6C42.1 62.5 53.9 67.2 66.2 68.9"/>
      <path d="M93.1 54.2C97 42.9 99.4 31.8 100.1 21"/>
      <path d="M98.6 64.8C105.2 53.8 112.3 44.8 120.1 38"/>
      <path d="M99.6 73.4C110.4 65.6 120.7 60.3 130.4 57.5"/>
      <path d="M75.1 57.4C83.4 60.3 90.5 64.5 96.3 70.1"/>
      <path d="M71.8 62.5C80.1 65.1 88.1 66.3 95.5 66.1"/>
    </g>

    <!-- small feather scallops on body -->
    <g fill="none" stroke="#d89a35" stroke-width="0.9" opacity="0.95">
      <path d="M74 58.2c2 1.8 4 1.8 6 0"/>
      <path d="M80 57.7c2.1 2 4.3 2 6.4 0"/>
      <path d="M86.4 58.8c2 1.8 4 1.8 6.1 0"/>
      <path d="M72.6 62.3c2.2 1.9 4.4 1.9 6.6 0"/>
      <path d="M79.5 63.6c2.2 1.9 4.4 1.9 6.6 0"/>
      <path d="M86.5 64.5c2.1 1.8 4.2 1.8 6.3 0"/>
    </g>
  </g>
</svg>
